<svg width="1440" height="488" viewBox="0 0 1440 488" fill="none" xmlns="http://www.w3.org/2000/svg">
<rect y="83" width="1440" height="325" fill="#22C8D6" fill-opacity="0.8"/>
<path d="M274.4 279.4H326.4V323H269.2L261.2 387H216L224 323H165.2L157.2 387H112.4L120.4 323H68V279.4H125.6L134 214.6H81.6V171H139.2L147.2 107H192L184 171H242.8L250.8 107H295.6L287.6 171H339.6L340 214.6H282.4L274.4 279.4ZM229.2 279.4L237.6 214.6H178.8L170.4 279.4H229.2Z" fill="white" fill-opacity="0.33"/>
<path d="M183.9 219.6C180.333 219.6 177.1 218.833 174.2 217.3C171.333 215.733 169.067 213.583 167.4 210.85C165.767 208.083 164.95 204.967 164.95 201.5C164.95 198.033 165.767 194.933 167.4 192.2C169.067 189.433 171.333 187.283 174.2 185.75C177.1 184.183 180.35 183.4 183.95 183.4C186.983 183.4 189.717 183.933 192.15 185C194.617 186.067 196.683 187.6 198.35 189.6L193.15 194.4C190.783 191.667 187.85 190.3 184.35 190.3C182.183 190.3 180.25 190.783 178.55 191.75C176.85 192.683 175.517 194 174.55 195.7C173.617 197.4 173.15 199.333 173.15 201.5C173.15 203.667 173.617 205.6 174.55 207.3C175.517 209 176.85 210.333 178.55 211.3C180.25 212.233 182.183 212.7 184.35 212.7C187.85 212.7 190.783 211.317 193.15 208.55L198.35 213.35C196.683 215.383 194.617 216.933 192.15 218C189.683 219.067 186.933 219.6 183.9 219.6ZM235.529 184V219H227.479V190.6H211.679V219H203.629V184H235.529ZM271.305 212.5V219H244.205V184H270.655V190.5H252.255V198.1H268.505V204.4H252.255V212.5H271.305ZM314.548 212.4V226.4H307.098V219H277.848V184H285.898V212.4H301.498V184H309.548V212.4H314.548ZM319.889 184H327.939V219H319.889V184ZM360.337 211.5H344.087L340.987 219H332.687L348.287 184H356.287L371.937 219H363.437L360.337 211.5ZM357.787 205.35L352.237 191.95L346.687 205.35H357.787ZM408.071 184V219H400.071V190.6H388.071L387.821 197.9C387.655 202.867 387.255 206.9 386.621 210C385.988 213.067 384.921 215.433 383.421 217.1C381.955 218.733 379.888 219.55 377.221 219.55C376.121 219.55 374.788 219.367 373.221 219L373.721 212.15C374.155 212.283 374.638 212.35 375.171 212.35C377.105 212.35 378.455 211.217 379.221 208.95C379.988 206.65 380.471 203.067 380.671 198.2L381.171 184H408.071ZM433.763 195.5C438.03 195.5 441.296 196.45 443.563 198.35C445.863 200.25 447.013 203.067 447.013 206.8C447.013 210.767 445.746 213.8 443.213 215.9C440.713 217.967 437.18 219 432.613 219H416.813V184H424.863V195.5H433.763ZM432.163 213C434.263 213 435.896 212.483 437.063 211.45C438.263 210.417 438.863 208.917 438.863 206.95C438.863 203.317 436.63 201.5 432.163 201.5H424.863V213H432.163ZM484.948 184V219H476.848V204.65H460.948V219H452.848V184H460.948V197.8H476.848V184H484.948ZM493.717 184H501.767V219H493.717V184ZM199.25 245V280H191.2V251.6H175.4V280H167.35V245H199.25ZM223.076 245C226.176 245 228.86 245.517 231.126 246.55C233.426 247.583 235.193 249.05 236.426 250.95C237.66 252.85 238.276 255.1 238.276 257.7C238.276 260.267 237.66 262.517 236.426 264.45C235.193 266.35 233.426 267.817 231.126 268.85C228.86 269.85 226.176 270.35 223.076 270.35H216.026V280H207.926V245H223.076ZM222.626 263.75C225.06 263.75 226.91 263.233 228.176 262.2C229.443 261.133 230.076 259.633 230.076 257.7C230.076 255.733 229.443 254.233 228.176 253.2C226.91 252.133 225.06 251.6 222.626 251.6H216.026V263.75H222.626ZM260.808 280.6C257.174 280.6 253.891 279.817 250.958 278.25C248.058 276.683 245.774 274.533 244.108 271.8C242.474 269.033 241.658 265.933 241.658 262.5C241.658 259.067 242.474 255.983 244.108 253.25C245.774 250.483 248.058 248.317 250.958 246.75C253.891 245.183 257.174 244.4 260.808 244.4C264.441 244.4 267.708 245.183 270.608 246.75C273.508 248.317 275.791 250.483 277.458 253.25C279.124 255.983 279.958 259.067 279.958 262.5C279.958 265.933 279.124 269.033 277.458 271.8C275.791 274.533 273.508 276.683 270.608 278.25C267.708 279.817 264.441 280.6 260.808 280.6ZM260.808 273.7C262.874 273.7 264.741 273.233 266.408 272.3C268.074 271.333 269.374 270 270.308 268.3C271.274 266.6 271.758 264.667 271.758 262.5C271.758 260.333 271.274 258.4 270.308 256.7C269.374 255 268.074 253.683 266.408 252.75C264.741 251.783 262.874 251.3 260.808 251.3C258.741 251.3 256.874 251.783 255.208 252.75C253.541 253.683 252.224 255 251.258 256.7C250.324 258.4 249.858 260.333 249.858 262.5C249.858 264.667 250.324 266.6 251.258 268.3C252.224 270 253.541 271.333 255.208 272.3C256.874 273.233 258.741 273.7 260.808 273.7ZM318.098 245V280H310.048V251.6H294.248V280H286.198V245H318.098ZM343.474 280.6C339.84 280.6 336.557 279.817 333.624 278.25C330.724 276.683 328.44 274.533 326.774 271.8C325.14 269.033 324.324 265.933 324.324 262.5C324.324 259.067 325.14 255.983 326.774 253.25C328.44 250.483 330.724 248.317 333.624 246.75C336.557 245.183 339.84 244.4 343.474 244.4C347.107 244.4 350.374 245.183 353.274 246.75C356.174 248.317 358.457 250.483 360.124 253.25C361.79 255.983 362.624 259.067 362.624 262.5C362.624 265.933 361.79 269.033 360.124 271.8C358.457 274.533 356.174 276.683 353.274 278.25C350.374 279.817 347.107 280.6 343.474 280.6ZM343.474 273.7C345.54 273.7 347.407 273.233 349.074 272.3C350.74 271.333 352.04 270 352.974 268.3C353.94 266.6 354.424 264.667 354.424 262.5C354.424 260.333 353.94 258.4 352.974 256.7C352.04 255 350.74 253.683 349.074 252.75C347.407 251.783 345.54 251.3 343.474 251.3C341.407 251.3 339.54 251.783 337.874 252.75C336.207 253.683 334.89 255 333.924 256.7C332.99 258.4 332.524 260.333 332.524 262.5C332.524 264.667 332.99 266.6 333.924 268.3C334.89 270 336.207 271.333 337.874 272.3C339.54 273.233 341.407 273.7 343.474 273.7ZM387.787 261.75C389.82 262.45 391.404 263.55 392.537 265.05C393.704 266.517 394.287 268.233 394.287 270.2C394.287 272.333 393.587 274.183 392.187 275.75C390.787 277.317 388.887 278.517 386.487 279.35C384.12 280.183 381.52 280.6 378.687 280.6C376.287 280.6 373.887 280.3 371.487 279.7C369.12 279.1 366.87 278.183 364.737 276.95L367.237 271.15C368.77 272.083 370.454 272.8 372.287 273.3C374.154 273.767 375.97 274 377.737 274C380.137 274 382.12 273.567 383.687 272.7C385.287 271.833 386.087 270.617 386.087 269.05C386.087 267.75 385.537 266.767 384.437 266.1C383.37 265.433 381.904 265.1 380.037 265.1H371.487V259H379.437C381.07 259 382.337 258.667 383.237 258C384.17 257.333 384.637 256.417 384.637 255.25C384.637 253.883 383.97 252.817 382.637 252.05C381.337 251.283 379.654 250.9 377.587 250.9C376.054 250.9 374.47 251.117 372.837 251.55C371.204 251.95 369.654 252.567 368.187 253.4L365.737 247.1C369.437 245.2 373.437 244.25 377.737 244.25C380.47 244.25 382.987 244.65 385.287 245.45C387.587 246.25 389.42 247.417 390.787 248.95C392.154 250.483 392.837 252.267 392.837 254.3C392.837 255.967 392.387 257.45 391.487 258.75C390.587 260.05 389.354 261.05 387.787 261.75ZM400.7 245H408.75V267.8L425.45 245H433.05V280H425.05V257.25L408.35 280H400.7V245ZM478.464 273.4V287.4H471.014V280H441.764V245H449.814V273.4H465.414V245H473.464V273.4H478.464ZM483.805 245H491.855V280H483.805V245ZM500.353 245H508.453V280H500.353V245ZM499.353 241.9C498.353 241.9 497.52 241.583 496.853 240.95C496.186 240.283 495.853 239.45 495.853 238.45C495.853 237.45 496.186 236.633 496.853 236C497.52 235.333 498.353 235 499.353 235C500.353 235 501.17 235.333 501.803 236C502.47 236.633 502.803 237.45 502.803 238.45C502.803 239.45 502.47 240.283 501.803 240.95C501.17 241.583 500.353 241.9 499.353 241.9ZM509.453 241.9C508.453 241.9 507.62 241.583 506.953 240.95C506.32 240.283 506.003 239.45 506.003 238.45C506.003 237.45 506.32 236.633 506.953 236C507.62 235.333 508.453 235 509.453 235C510.453 235 511.286 235.333 511.953 236C512.62 236.633 512.953 237.45 512.953 238.45C512.953 239.45 512.62 240.283 511.953 240.95C511.286 241.583 510.453 241.9 509.453 241.9Z" fill="#0C323B"/>
<path d="M655.328 168.984V165.984H652.328V168.984H655.328ZM673.44 168.984H676.44V165.984H673.44V168.984ZM673.44 176.984V179.984H676.44V176.984H673.44ZM655.328 176.984H652.328V179.984H655.328V176.984ZM655.328 171.984H673.44V165.984H655.328V171.984ZM670.44 168.984V176.984H676.44V168.984H670.44ZM673.44 173.984H655.328V179.984H673.44V173.984ZM658.328 176.984V168.984H652.328V176.984H658.328ZM698.936 140.6H701.936V137.6H698.936V140.6ZM698.936 191V194H701.936V191H698.936ZM687.271 191H684.271V194H687.271V191ZM687.271 149.96H690.271V146.96H687.271V149.96ZM677.191 149.96H674.191V152.96H677.191V149.96ZM677.191 140.6V137.6H674.191V140.6H677.191ZM695.936 140.6V191H701.936V140.6H695.936ZM698.936 188H687.271V194H698.936V188ZM690.271 191V149.96H684.271V191H690.271ZM687.271 146.96H677.191V152.96H687.271V146.96ZM680.191 149.96V140.6H674.191V149.96H680.191ZM677.191 143.6H698.936V137.6H677.191V143.6ZM718.131 188.768L719.734 186.232L718.131 188.768ZM710.427 179.84L707.705 181.101L707.714 181.121L707.724 181.141L710.427 179.84ZM710.427 151.832L707.718 150.543L707.714 150.551L707.711 150.558L710.427 151.832ZM718.131 142.832L719.734 145.368L718.131 142.832ZM740.451 142.832L738.847 145.368L740.451 142.832ZM748.083 151.832L745.361 153.093L745.37 153.113L745.38 153.133L748.083 151.832ZM748.083 179.84L745.374 178.551L745.37 178.559L745.367 178.566L748.083 179.84ZM740.451 188.768L738.847 186.232L740.451 188.768ZM736.491 178.04L734.002 176.365L733.991 176.381L733.981 176.397L736.491 178.04ZM736.491 153.56L733.981 155.203L733.991 155.219L734.002 155.235L736.491 153.56ZM722.091 153.56L719.602 151.885L719.591 151.901L719.581 151.917L722.091 153.56ZM722.091 178.04L719.581 179.683L719.591 179.699L719.602 179.715L722.091 178.04ZM729.291 188.864C725.634 188.864 722.479 187.968 719.734 186.232L716.527 191.304C720.31 193.696 724.595 194.864 729.291 194.864V188.864ZM719.734 186.232C716.999 184.503 714.788 181.982 713.13 178.539L707.724 181.141C709.81 185.474 712.734 188.905 716.527 191.304L719.734 186.232ZM713.149 178.579C711.548 175.124 710.691 170.894 710.691 165.8H704.691C704.691 171.554 705.658 176.684 707.705 181.101L713.149 178.579ZM710.691 165.8C710.691 160.704 711.548 156.505 713.143 153.106L707.711 150.558C705.657 154.935 704.691 160.048 704.691 165.8H710.691ZM713.136 153.121C714.797 149.629 717.009 147.091 719.734 145.368L716.527 140.296C712.725 142.701 709.801 146.163 707.718 150.543L713.136 153.121ZM719.734 145.368C722.479 143.632 725.634 142.736 729.291 142.736V136.736C724.595 136.736 720.31 137.904 716.527 140.296L719.734 145.368ZM729.291 142.736C732.947 142.736 736.102 143.632 738.847 145.368L742.054 140.296C738.271 137.904 733.986 136.736 729.291 136.736V142.736ZM738.847 145.368C741.565 147.086 743.749 149.614 745.361 153.093L750.805 150.571C748.769 146.178 745.864 142.706 742.054 140.296L738.847 145.368ZM745.38 153.133C747.013 156.525 747.891 160.714 747.891 165.8H753.891C753.891 160.038 752.897 154.915 750.786 150.531L745.38 153.133ZM747.891 165.8C747.891 170.884 747.013 175.104 745.374 178.551L750.792 181.129C752.896 176.704 753.891 171.564 753.891 165.8H747.891ZM745.367 178.566C743.758 181.996 741.575 184.508 738.847 186.232L742.054 191.304C745.855 188.9 748.76 185.46 750.799 181.114L745.367 178.566ZM738.847 186.232C736.102 187.968 732.947 188.864 729.291 188.864V194.864C733.986 194.864 738.271 193.696 742.054 191.304L738.847 186.232ZM729.291 185C733.407 185 736.737 183.142 739.001 179.683L733.981 176.397C732.789 178.218 731.318 179 729.291 179V185ZM738.98 179.715C741.254 176.334 742.155 171.529 742.155 165.8H736.155C736.155 171.111 735.28 174.466 734.002 176.365L738.98 179.715ZM742.155 165.8C742.155 160.071 741.254 155.266 738.98 151.885L734.002 155.235C735.28 157.134 736.155 160.489 736.155 165.8H742.155ZM739.001 151.917C736.737 148.458 733.407 146.6 729.291 146.6V152.6C731.318 152.6 732.789 153.382 733.981 155.203L739.001 151.917ZM729.291 146.6C725.208 146.6 721.9 148.468 719.602 151.885L724.58 155.235C725.833 153.372 727.326 152.6 729.291 152.6V146.6ZM719.581 151.917C717.373 155.29 716.499 160.08 716.499 165.8H722.499C722.499 160.479 723.353 157.11 724.601 155.203L719.581 151.917ZM716.499 165.8C716.499 171.519 717.373 176.31 719.581 179.683L724.601 176.397C723.353 174.49 722.499 171.12 722.499 165.8H716.499ZM719.602 179.715C721.9 183.132 725.208 185 729.291 185V179C727.326 179 725.833 178.228 724.58 176.365L719.602 179.715Z" fill="white"/>
<path d="M762.6 173.048L760.376 175.062L760.396 175.084L760.417 175.105L762.6 173.048ZM762.6 159.56L760.397 157.523L760.396 157.525L762.6 159.56ZM774.648 159.56L772.424 161.574L772.434 161.584L772.444 161.595L774.648 159.56ZM774.648 173.048L776.852 175.083L776.862 175.072L776.872 175.062L774.648 173.048ZM788.664 157.4V154.4H787.08L786.187 155.708L788.664 157.4ZM794.376 157.4L796.853 159.092L800.057 154.4H794.376V157.4ZM771.432 191V194H773.016L773.909 192.692L771.432 191ZM765.72 191L763.243 189.308L760.039 194H765.72V191ZM771.192 170.264L768.751 168.52L768.73 168.55L768.71 168.579L771.192 170.264ZM771.192 162.296L768.71 163.981L768.73 164.01L768.751 164.04L771.192 162.296ZM766.104 162.344L768.545 164.088L768.56 164.068L768.574 164.047L766.104 162.344ZM766.104 170.264L763.634 171.967L763.648 171.988L763.663 172.008L766.104 170.264ZM787.128 190.28L785.556 192.835L785.594 192.858L785.633 192.881L787.128 190.28ZM784.2 187.016L786.883 185.674L784.2 187.016ZM784.2 177.224L786.883 178.566V178.566L784.2 177.224ZM787.128 174.008L788.652 176.592L788.662 176.586L788.671 176.58L787.128 174.008ZM797.448 175.4L795.224 177.414L795.244 177.436L795.265 177.457L797.448 175.4ZM797.448 188.888L795.245 186.851L795.244 186.853L797.448 188.888ZM793.992 186.104L791.522 184.401L791.516 184.41L791.51 184.419L793.992 186.104ZM793.992 178.184L791.483 179.828L791.516 179.879L791.551 179.928L793.992 178.184ZM768.648 172.544C766.939 172.544 765.737 172.003 764.783 170.991L760.417 175.105C762.599 177.421 765.429 178.544 768.648 178.544V172.544ZM764.824 171.034C763.896 170.01 763.296 168.531 763.296 166.28H757.296C757.296 169.661 758.232 172.694 760.376 175.062L764.824 171.034ZM763.296 166.28C763.296 164.026 763.897 162.578 764.804 161.595L760.396 157.525C758.231 159.87 757.296 162.902 757.296 166.28H763.296ZM764.803 161.597C765.762 160.559 766.958 160.016 768.648 160.016V154.016C765.41 154.016 762.574 155.169 760.397 157.523L764.803 161.597ZM768.648 160.016C770.338 160.016 771.504 160.558 772.424 161.574L776.872 157.546C774.72 155.17 771.886 154.016 768.648 154.016V160.016ZM772.444 161.595C773.351 162.578 773.952 164.026 773.952 166.28H779.952C779.952 162.902 779.017 159.87 776.852 157.525L772.444 161.595ZM773.952 166.28C773.952 168.531 773.352 170.01 772.424 171.034L776.872 175.062C779.016 172.694 779.952 169.661 779.952 166.28H773.952ZM772.444 171.013C771.529 172.004 770.357 172.544 768.648 172.544V178.544C771.867 178.544 774.695 177.42 776.852 175.083L772.444 171.013ZM788.664 160.4H794.376V154.4H788.664V160.4ZM791.899 155.708L768.955 189.308L773.909 192.692L796.853 159.092L791.899 155.708ZM771.432 188H765.72V194H771.432V188ZM768.197 192.692L791.141 159.092L786.187 155.708L763.243 189.308L768.197 192.692ZM768.648 174.608C770.725 174.608 772.505 173.672 773.674 171.949L768.71 168.579C768.675 168.631 768.655 168.649 768.656 168.648C768.657 168.647 768.661 168.643 768.669 168.638C768.677 168.632 768.687 168.626 768.699 168.619C768.71 168.613 768.721 168.609 768.73 168.605C768.738 168.602 768.743 168.601 768.743 168.601C768.742 168.601 768.714 168.608 768.648 168.608V174.608ZM773.633 172.008C774.796 170.38 775.152 168.321 775.152 166.28H769.152C769.152 167.759 768.868 168.356 768.751 168.52L773.633 172.008ZM775.152 166.28C775.152 164.239 774.796 162.18 773.633 160.552L768.751 164.04C768.868 164.204 769.152 164.801 769.152 166.28H775.152ZM773.674 160.611C772.505 158.888 770.725 157.952 768.648 157.952V163.952C768.714 163.952 768.742 163.959 768.743 163.959C768.743 163.959 768.738 163.958 768.73 163.955C768.721 163.951 768.71 163.947 768.699 163.941C768.687 163.934 768.677 163.928 768.669 163.922C768.661 163.917 768.657 163.913 768.656 163.912C768.655 163.911 768.675 163.929 768.71 163.981L773.674 160.611ZM768.648 157.952C766.529 157.952 764.79 158.966 763.634 160.641L768.574 164.047C768.624 163.974 768.659 163.938 768.672 163.926C768.685 163.915 768.68 163.921 768.66 163.932C768.639 163.943 768.618 163.951 768.605 163.954C768.594 163.957 768.605 163.952 768.648 163.952V157.952ZM763.663 160.6C762.506 162.22 762.144 164.257 762.144 166.28H768.144C768.144 164.847 768.422 164.26 768.545 164.088L763.663 160.6ZM762.144 166.28C762.144 168.314 762.51 170.337 763.634 171.967L768.574 168.561C768.418 168.335 768.144 167.702 768.144 166.28H762.144ZM763.663 172.008C764.838 173.652 766.575 174.608 768.648 174.608V168.608C768.597 168.608 768.578 168.603 768.582 168.604C768.588 168.605 768.603 168.61 768.621 168.619C768.639 168.629 768.644 168.634 768.634 168.626C768.623 168.616 768.592 168.585 768.545 168.52L763.663 172.008ZM791.448 188.384C790.328 188.384 789.411 188.132 788.623 187.679L785.633 192.881C787.405 193.9 789.368 194.384 791.448 194.384V188.384ZM788.7 187.725C787.964 187.272 787.357 186.621 786.883 185.674L781.517 188.358C782.451 190.227 783.796 191.752 785.556 192.835L788.7 187.725ZM786.883 185.674C786.422 184.751 786.144 183.593 786.144 182.12H780.144C780.144 184.359 780.57 186.465 781.517 188.358L786.883 185.674ZM786.144 182.12C786.144 180.647 786.422 179.489 786.883 178.566L781.517 175.882C780.57 177.775 780.144 179.881 780.144 182.12H786.144ZM786.883 178.566C787.352 177.628 787.945 177.009 788.652 176.592L785.604 171.424C783.815 172.479 782.456 174.004 781.517 175.882L786.883 178.566ZM788.671 176.58C789.452 176.112 790.351 175.856 791.448 175.856V169.856C789.345 169.856 787.364 170.368 785.585 171.436L788.671 176.58ZM791.448 175.856C793.138 175.856 794.304 176.398 795.224 177.414L799.672 173.386C797.52 171.01 794.686 169.856 791.448 169.856V175.856ZM795.265 177.457C796.193 178.443 796.8 179.882 796.8 182.12H802.8C802.8 178.726 801.839 175.685 799.631 173.343L795.265 177.457ZM796.8 182.12C796.8 184.355 796.194 185.826 795.245 186.851L799.651 190.925C801.838 188.558 802.8 185.517 802.8 182.12H796.8ZM795.244 186.853C794.329 187.844 793.157 188.384 791.448 188.384V194.384C794.667 194.384 797.495 193.26 799.652 190.923L795.244 186.853ZM791.448 190.448C793.525 190.448 795.305 189.512 796.474 187.789L791.51 184.419C791.475 184.471 791.455 184.489 791.456 184.488C791.457 184.487 791.461 184.483 791.469 184.478C791.477 184.472 791.487 184.466 791.499 184.459C791.51 184.453 791.521 184.449 791.53 184.445C791.538 184.442 791.543 184.441 791.543 184.441C791.542 184.441 791.514 184.448 791.448 184.448V190.448ZM796.462 187.807C797.586 186.177 797.952 184.154 797.952 182.12H791.952C791.952 183.542 791.678 184.175 791.522 184.401L796.462 187.807ZM797.952 182.12C797.952 180.097 797.59 178.06 796.433 176.44L791.551 179.928C791.674 180.1 791.952 180.687 791.952 182.12H797.952ZM796.501 176.54C795.352 174.786 793.571 173.792 791.448 173.792V179.792C791.506 179.792 791.527 179.798 791.52 179.796C791.517 179.796 791.509 179.793 791.497 179.789C791.486 179.785 791.473 179.779 791.46 179.772C791.447 179.765 791.436 179.758 791.428 179.752C791.42 179.746 791.417 179.743 791.418 179.743C791.419 179.745 791.443 179.768 791.483 179.828L796.501 176.54ZM791.448 173.792C789.375 173.792 787.638 174.748 786.463 176.392L791.345 179.88C791.392 179.815 791.423 179.784 791.434 179.774C791.444 179.766 791.439 179.771 791.421 179.781C791.403 179.79 791.388 179.795 791.382 179.796C791.378 179.797 791.397 179.792 791.448 179.792V173.792ZM786.463 176.392C785.3 178.02 784.944 180.079 784.944 182.12H790.944C790.944 180.641 791.228 180.044 791.345 179.88L786.463 176.392ZM784.944 182.12C784.944 184.161 785.3 186.22 786.463 187.848L791.345 184.36C791.228 184.196 790.944 183.599 790.944 182.12H784.944ZM786.463 187.848C787.638 189.492 789.375 190.448 791.448 190.448V184.448C791.397 184.448 791.378 184.443 791.382 184.444C791.388 184.445 791.403 184.45 791.421 184.459C791.439 184.469 791.444 184.474 791.434 184.466C791.423 184.456 791.392 184.425 791.345 184.36L786.463 187.848Z" fill="white"/>
<path d="M853.256 169.02V173.682H851.096V171H841.43V173.682H839.252L839.27 169.02H839.81C840.602 168.984 841.154 168.402 841.466 167.274C841.79 166.134 841.988 164.508 842.06 162.396L842.204 158.4H851.438V169.02H853.256ZM844.112 162.612C844.052 164.244 843.92 165.606 843.716 166.698C843.512 167.778 843.188 168.552 842.744 169.02H849.134V160.38H844.202L844.112 162.612ZM866.223 158.4V171H863.919V160.38H858.951L858.843 163.53C858.783 165.294 858.639 166.728 858.411 167.832C858.183 168.924 857.817 169.758 857.313 170.334C856.809 170.898 856.113 171.18 855.225 171.18C854.913 171.18 854.487 171.12 853.947 171L854.109 168.966C854.265 169.014 854.445 169.038 854.649 169.038C855.381 169.038 855.897 168.606 856.197 167.742C856.509 166.866 856.701 165.492 856.773 163.62L856.953 158.4H866.223ZM879.398 158.4V171H877.094V167.49H873.98H873.728L871.388 171H868.922L871.622 167.112C870.746 166.788 870.068 166.278 869.588 165.582C869.12 164.874 868.886 164.022 868.886 163.026C868.886 162.066 869.102 161.238 869.534 160.542C869.966 159.846 870.578 159.318 871.37 158.958C872.162 158.586 873.092 158.4 874.16 158.4H879.398ZM874.232 160.38C873.272 160.38 872.534 160.602 872.018 161.046C871.514 161.49 871.262 162.138 871.262 162.99C871.262 163.818 871.508 164.46 872 164.916C872.492 165.36 873.206 165.582 874.142 165.582H877.094V160.38H874.232ZM898.744 158.4L893.272 168.57C892.792 169.47 892.216 170.148 891.544 170.604C890.884 171.048 890.164 171.27 889.384 171.27C888.76 171.27 888.142 171.138 887.53 170.874L888.106 169.038C888.598 169.194 889.006 169.272 889.33 169.272C890.086 169.272 890.71 168.882 891.202 168.102L891.4 167.796L886.378 158.4H888.88L892.606 165.798L896.44 158.4H898.744ZM906.027 171.18C904.755 171.18 903.603 170.904 902.571 170.352C901.551 169.788 900.747 169.014 900.159 168.03C899.583 167.046 899.295 165.936 899.295 164.7C899.295 163.464 899.589 162.354 900.177 161.37C900.765 160.386 901.569 159.618 902.589 159.066C903.621 158.502 904.773 158.22 906.045 158.22C907.077 158.22 908.019 158.4 908.871 158.76C909.723 159.12 910.443 159.642 911.031 160.326L909.519 161.748C908.607 160.764 907.485 160.272 906.153 160.272C905.289 160.272 904.515 160.464 903.831 160.848C903.147 161.22 902.613 161.742 902.229 162.414C901.845 163.086 901.653 163.848 901.653 164.7C901.653 165.552 901.845 166.314 902.229 166.986C902.613 167.658 903.147 168.186 903.831 168.57C904.515 168.942 905.289 169.128 906.153 169.128C907.485 169.128 908.607 168.63 909.519 167.634L911.031 169.074C910.443 169.758 909.717 170.28 908.853 170.64C908.001 171 907.059 171.18 906.027 171.18ZM913.221 158.4H915.525V171H913.221V158.4ZM920.533 158.4L923.503 162.612L926.473 158.4H929.209L924.979 164.448L929.551 171H926.779L923.503 166.41L920.245 171H917.545L922.099 164.538L917.833 158.4H920.533ZM947.708 158.4V171H945.368V165.6H938.852V171H936.512V158.4H938.852V163.602H945.368V158.4H947.708ZM957.075 171.18C955.791 171.18 954.633 170.904 953.601 170.352C952.569 169.788 951.759 169.014 951.171 168.03C950.583 167.034 950.289 165.924 950.289 164.7C950.289 163.476 950.583 162.372 951.171 161.388C951.759 160.392 952.569 159.618 953.601 159.066C954.633 158.502 955.791 158.22 957.075 158.22C958.359 158.22 959.517 158.502 960.549 159.066C961.581 159.618 962.391 160.386 962.979 161.37C963.567 162.354 963.861 163.464 963.861 164.7C963.861 165.936 963.567 167.046 962.979 168.03C962.391 169.014 961.581 169.788 960.549 170.352C959.517 170.904 958.359 171.18 957.075 171.18ZM957.075 169.128C957.915 169.128 958.671 168.942 959.343 168.57C960.015 168.186 960.543 167.658 960.927 166.986C961.311 166.302 961.503 165.54 961.503 164.7C961.503 163.86 961.311 163.104 960.927 162.432C960.543 161.748 960.015 161.22 959.343 160.848C958.671 160.464 957.915 160.272 957.075 160.272C956.235 160.272 955.479 160.464 954.807 160.848C954.135 161.22 953.607 161.748 953.223 162.432C952.839 163.104 952.647 163.86 952.647 164.7C952.647 165.54 952.839 166.302 953.223 166.986C953.607 167.658 954.135 168.186 954.807 168.57C955.479 168.942 956.235 169.128 957.075 169.128ZM974.746 164.448C975.55 164.664 976.162 165.036 976.582 165.564C977.002 166.08 977.212 166.728 977.212 167.508C977.212 168.612 976.804 169.47 975.988 170.082C975.172 170.694 973.99 171 972.442 171H966.466V158.4H972.1C973.516 158.4 974.62 158.682 975.412 159.246C976.204 159.81 976.6 160.608 976.6 161.64C976.6 162.3 976.438 162.87 976.114 163.35C975.802 163.83 975.346 164.196 974.746 164.448ZM968.77 163.782H971.902C972.658 163.782 973.234 163.632 973.63 163.332C974.026 163.032 974.224 162.588 974.224 162C974.224 161.412 974.026 160.968 973.63 160.668C973.234 160.356 972.658 160.2 971.902 160.2H968.77V163.782ZM972.37 169.2C974.026 169.2 974.854 168.576 974.854 167.328C974.854 166.104 974.026 165.492 972.37 165.492H968.77V169.2H972.37ZM979.895 158.4H982.199V167.346L988.967 158.4H991.145V171H988.841V162.072L982.073 171H979.895V158.4ZM996.136 158.4L999.106 162.612L1002.08 158.4H1004.81L1000.58 164.448L1005.15 171H1002.38L999.106 166.41L995.848 171H993.148L997.702 164.538L993.436 158.4H996.136ZM1016.76 165.69H1014.42V171H1012.12V158.4H1014.42V163.674H1016.83L1020.45 158.4H1022.93L1018.63 164.502L1023.1 171H1020.45L1016.76 165.69ZM1035.75 158.4V171H1033.44V160.38H1028.47L1028.37 163.53C1028.31 165.294 1028.16 166.728 1027.93 167.832C1027.71 168.924 1027.34 169.758 1026.84 170.334C1026.33 170.898 1025.64 171.18 1024.75 171.18C1024.44 171.18 1024.01 171.12 1023.47 171L1023.63 168.966C1023.79 169.014 1023.97 169.038 1024.17 169.038C1024.9 169.038 1025.42 168.606 1025.72 167.742C1026.03 166.866 1026.22 165.492 1026.3 163.62L1026.48 158.4H1035.75ZM1039.31 158.4H1041.61V171H1039.31V158.4ZM1050.67 171.18C1049.45 171.18 1048.34 170.904 1047.36 170.352C1046.39 169.788 1045.62 169.014 1045.07 168.03C1044.52 167.046 1044.24 165.936 1044.24 164.7C1044.24 163.464 1044.52 162.354 1045.07 161.37C1045.62 160.386 1046.39 159.618 1047.36 159.066C1048.34 158.502 1049.45 158.22 1050.67 158.22C1051.74 158.22 1052.7 158.4 1053.57 158.76C1054.44 159.12 1055.17 159.642 1055.75 160.326L1054.27 161.766C1053.35 160.77 1052.19 160.272 1050.8 160.272C1049.72 160.272 1048.8 160.602 1048.04 161.262C1047.3 161.922 1046.84 162.792 1046.67 163.872H1052.31V165.726H1046.71C1046.91 166.746 1047.38 167.568 1048.11 168.192C1048.86 168.816 1049.75 169.128 1050.8 169.128C1052.19 169.128 1053.35 168.63 1054.27 167.634L1055.75 169.074C1055.17 169.758 1054.44 170.28 1053.57 170.64C1052.7 171 1051.74 171.18 1050.67 171.18ZM1069.16 158.4V171H1066.82V165.6H1060.3V171H1057.96V158.4H1060.3V163.602H1066.82V158.4H1069.16ZM1081.83 160.38H1077.66V171H1075.34V160.38H1071.18V158.4H1081.83V160.38ZM1083.87 158.4H1086.17V171H1083.87V158.4ZM1098.02 164.448C1098.82 164.664 1099.44 165.036 1099.86 165.564C1100.28 166.08 1100.49 166.728 1100.49 167.508C1100.49 168.612 1100.08 169.47 1099.26 170.082C1098.45 170.694 1097.26 171 1095.72 171H1089.74V158.4H1095.37C1096.79 158.4 1097.89 158.682 1098.69 159.246C1099.48 159.81 1099.87 160.608 1099.87 161.64C1099.87 162.3 1099.71 162.87 1099.39 163.35C1099.08 163.83 1098.62 164.196 1098.02 164.448ZM1092.04 163.782H1095.18C1095.93 163.782 1096.51 163.632 1096.9 163.332C1097.3 163.032 1097.5 162.588 1097.5 162C1097.5 161.412 1097.3 160.968 1096.9 160.668C1096.51 160.356 1095.93 160.2 1095.18 160.2H1092.04V163.782ZM1095.64 169.2C1097.3 169.2 1098.13 168.576 1098.13 167.328C1098.13 166.104 1097.3 165.492 1095.64 165.492H1092.04V169.2H1095.64Z" fill="#0C323B"/>
<path d="M655.328 248.984V245.984H652.328V248.984H655.328ZM673.44 248.984H676.44V245.984H673.44V248.984ZM673.44 256.984V259.984H676.44V256.984H673.44ZM655.328 256.984H652.328V259.984H655.328V256.984ZM655.328 251.984H673.44V245.984H655.328V251.984ZM670.44 248.984V256.984H676.44V248.984H670.44ZM673.44 253.984H655.328V259.984H673.44V253.984ZM658.328 256.984V248.984H652.328V256.984H658.328ZM698.936 220.6H701.936V217.6H698.936V220.6ZM698.936 271V274H701.936V271H698.936ZM687.271 271H684.271V274H687.271V271ZM687.271 229.96H690.271V226.96H687.271V229.96ZM677.191 229.96H674.191V232.96H677.191V229.96ZM677.191 220.6V217.6H674.191V220.6H677.191ZM695.936 220.6V271H701.936V220.6H695.936ZM698.936 268H687.271V274H698.936V268ZM690.271 271V229.96H684.271V271H690.271ZM687.271 226.96H677.191V232.96H687.271V226.96ZM680.191 229.96V220.6H674.191V229.96H680.191ZM677.191 223.6H698.936V217.6H677.191V223.6ZM740.667 243.784L738.733 246.078L738.741 246.085L738.749 246.091L740.667 243.784ZM743.475 263.584L746.03 265.156L746.036 265.145L746.043 265.135L743.475 263.584ZM736.419 269.632L737.71 272.34L737.719 272.336L737.728 272.331L736.419 269.632ZM714.315 270.496L713.501 273.384L713.525 273.39L713.549 273.397L714.315 270.496ZM705.603 266.464L702.937 265.088L701.75 267.387L703.85 268.899L705.603 266.464ZM710.211 257.536L712.011 255.136L709.172 253.007L707.545 256.16L710.211 257.536ZM716.835 260.92L715.903 263.771L715.928 263.78L715.953 263.787L716.835 260.92ZM731.451 260.344L733.147 262.818L731.451 260.344ZM731.307 250.624L729.692 253.152L729.707 253.162L729.723 253.172L731.307 250.624ZM709.347 248.968L706.359 248.695L706.06 251.968H709.347V248.968ZM711.939 220.6V217.6H709.2L708.951 220.327L711.939 220.6ZM742.683 220.6H745.683V217.6H742.683V220.6ZM742.683 229.96V232.96H745.683V229.96H742.683ZM721.659 229.96V226.96H718.897L718.669 229.713L721.659 229.96ZM720.867 239.536L717.877 239.289L717.608 242.536H720.867V239.536ZM724.971 242.536C731.775 242.536 736.161 243.91 738.733 246.078L742.6 241.49C738.453 237.994 732.374 236.536 724.971 236.536V242.536ZM738.749 246.091C741.417 248.308 742.779 251.226 742.779 255.16H748.779C748.779 249.59 746.733 244.924 742.584 241.477L738.749 246.091ZM742.779 255.16C742.779 257.705 742.15 259.974 740.907 262.033L746.043 265.135C747.871 262.106 748.779 258.759 748.779 255.16H742.779ZM740.92 262.012C739.739 263.931 737.868 265.595 735.11 266.933L737.728 272.331C741.305 270.597 744.139 268.229 746.03 265.156L740.92 262.012ZM735.127 266.924C732.522 268.167 729.13 268.864 724.827 268.864V274.864C729.74 274.864 734.076 274.073 737.71 272.34L735.127 266.924ZM724.827 268.864C721.535 268.864 718.288 268.442 715.08 267.595L713.549 273.397C717.254 274.374 721.015 274.864 724.827 274.864V268.864ZM715.128 267.608C711.993 266.725 709.422 265.517 707.356 264.029L703.85 268.899C706.584 270.867 709.821 272.347 713.501 273.384L715.128 267.608ZM708.269 267.84L712.877 258.912L707.545 256.16L702.937 265.088L708.269 267.84ZM708.411 259.936C710.617 261.591 713.124 262.863 715.903 263.771L717.767 258.069C715.554 257.345 713.645 256.361 712.011 255.136L708.411 259.936ZM715.953 263.787C718.738 264.644 721.603 265.072 724.539 265.072V259.072C722.195 259.072 719.924 258.732 717.717 258.053L715.953 263.787ZM724.539 265.072C727.819 265.072 730.793 264.432 733.147 262.818L729.754 257.87C728.748 258.56 727.115 259.072 724.539 259.072V265.072ZM733.147 262.818C735.656 261.098 736.971 258.557 736.971 255.52H730.971C730.971 256.611 730.606 257.286 729.754 257.87L733.147 262.818ZM736.971 255.52C736.971 252.365 735.582 249.749 732.891 248.076L729.723 253.172C730.584 253.707 730.971 254.355 730.971 255.52H736.971ZM732.922 248.096C730.413 246.493 726.619 245.968 722.235 245.968V251.968C726.49 251.968 728.745 252.547 729.692 253.152L732.922 248.096ZM722.235 245.968H709.347V251.968H722.235V245.968ZM712.334 249.241L714.926 220.873L708.951 220.327L706.359 248.695L712.334 249.241ZM711.939 223.6H742.683V217.6H711.939V223.6ZM739.683 220.6V229.96H745.683V220.6H739.683ZM742.683 226.96H721.659V232.96H742.683V226.96ZM718.669 229.713L717.877 239.289L723.857 239.783L724.649 230.207L718.669 229.713ZM720.867 242.536H724.971V236.536H720.867V242.536Z" fill="white"/>
<path d="M762.6 253.048L760.376 255.062L760.396 255.084L760.417 255.105L762.6 253.048ZM762.6 239.56L760.397 237.523L760.396 237.525L762.6 239.56ZM774.648 239.56L772.424 241.574L772.434 241.584L772.444 241.595L774.648 239.56ZM774.648 253.048L776.852 255.083L776.862 255.072L776.872 255.062L774.648 253.048ZM788.664 237.4V234.4H787.08L786.187 235.708L788.664 237.4ZM794.376 237.4L796.853 239.092L800.057 234.4H794.376V237.4ZM771.432 271V274H773.016L773.909 272.692L771.432 271ZM765.72 271L763.243 269.308L760.039 274H765.72V271ZM771.192 250.264L768.751 248.52L768.73 248.55L768.71 248.579L771.192 250.264ZM771.192 242.296L768.71 243.981L768.73 244.01L768.751 244.04L771.192 242.296ZM766.104 242.344L768.545 244.088L768.56 244.068L768.574 244.047L766.104 242.344ZM766.104 250.264L763.634 251.967L763.648 251.988L763.663 252.008L766.104 250.264ZM787.128 270.28L785.556 272.835L785.594 272.858L785.633 272.881L787.128 270.28ZM784.2 267.016L786.883 265.674L784.2 267.016ZM784.2 257.224L786.883 258.566V258.566L784.2 257.224ZM787.128 254.008L788.652 256.592L788.662 256.586L788.671 256.58L787.128 254.008ZM797.448 255.4L795.224 257.414L795.244 257.436L795.265 257.457L797.448 255.4ZM797.448 268.888L795.245 266.851L795.244 266.853L797.448 268.888ZM793.992 266.104L791.522 264.401L791.516 264.41L791.51 264.419L793.992 266.104ZM793.992 258.184L791.483 259.828L791.516 259.879L791.551 259.928L793.992 258.184ZM768.648 252.544C766.939 252.544 765.737 252.003 764.783 250.991L760.417 255.105C762.599 257.421 765.429 258.544 768.648 258.544V252.544ZM764.824 251.034C763.896 250.01 763.296 248.531 763.296 246.28H757.296C757.296 249.661 758.232 252.694 760.376 255.062L764.824 251.034ZM763.296 246.28C763.296 244.026 763.897 242.578 764.804 241.595L760.396 237.525C758.231 239.87 757.296 242.902 757.296 246.28H763.296ZM764.803 241.597C765.762 240.559 766.958 240.016 768.648 240.016V234.016C765.41 234.016 762.574 235.169 760.397 237.523L764.803 241.597ZM768.648 240.016C770.338 240.016 771.504 240.558 772.424 241.574L776.872 237.546C774.72 235.17 771.886 234.016 768.648 234.016V240.016ZM772.444 241.595C773.351 242.578 773.952 244.026 773.952 246.28H779.952C779.952 242.902 779.017 239.87 776.852 237.525L772.444 241.595ZM773.952 246.28C773.952 248.531 773.352 250.01 772.424 251.034L776.872 255.062C779.016 252.694 779.952 249.661 779.952 246.28H773.952ZM772.444 251.013C771.529 252.004 770.357 252.544 768.648 252.544V258.544C771.867 258.544 774.695 257.42 776.852 255.083L772.444 251.013ZM788.664 240.4H794.376V234.4H788.664V240.4ZM791.899 235.708L768.955 269.308L773.909 272.692L796.853 239.092L791.899 235.708ZM771.432 268H765.72V274H771.432V268ZM768.197 272.692L791.141 239.092L786.187 235.708L763.243 269.308L768.197 272.692ZM768.648 254.608C770.725 254.608 772.505 253.672 773.674 251.949L768.71 248.579C768.675 248.631 768.655 248.649 768.656 248.648C768.657 248.647 768.661 248.643 768.669 248.638C768.677 248.632 768.687 248.626 768.699 248.619C768.71 248.613 768.721 248.609 768.73 248.605C768.738 248.602 768.743 248.601 768.743 248.601C768.742 248.601 768.714 248.608 768.648 248.608V254.608ZM773.633 252.008C774.796 250.38 775.152 248.321 775.152 246.28H769.152C769.152 247.759 768.868 248.356 768.751 248.52L773.633 252.008ZM775.152 246.28C775.152 244.239 774.796 242.18 773.633 240.552L768.751 244.04C768.868 244.204 769.152 244.801 769.152 246.28H775.152ZM773.674 240.611C772.505 238.888 770.725 237.952 768.648 237.952V243.952C768.714 243.952 768.742 243.959 768.743 243.959C768.743 243.959 768.738 243.958 768.73 243.955C768.721 243.951 768.71 243.947 768.699 243.941C768.687 243.934 768.677 243.928 768.669 243.922C768.661 243.917 768.657 243.913 768.656 243.912C768.655 243.911 768.675 243.929 768.71 243.981L773.674 240.611ZM768.648 237.952C766.529 237.952 764.79 238.966 763.634 240.641L768.574 244.047C768.624 243.974 768.659 243.938 768.672 243.926C768.685 243.915 768.68 243.921 768.66 243.932C768.639 243.943 768.618 243.951 768.605 243.954C768.594 243.957 768.605 243.952 768.648 243.952V237.952ZM763.663 240.6C762.506 242.22 762.144 244.257 762.144 246.28H768.144C768.144 244.847 768.422 244.26 768.545 244.088L763.663 240.6ZM762.144 246.28C762.144 248.314 762.51 250.337 763.634 251.967L768.574 248.561C768.418 248.335 768.144 247.702 768.144 246.28H762.144ZM763.663 252.008C764.838 253.652 766.575 254.608 768.648 254.608V248.608C768.597 248.608 768.578 248.603 768.582 248.604C768.588 248.605 768.603 248.61 768.621 248.619C768.639 248.629 768.644 248.634 768.634 248.626C768.623 248.616 768.592 248.585 768.545 248.52L763.663 252.008ZM791.448 268.384C790.328 268.384 789.411 268.132 788.623 267.679L785.633 272.881C787.405 273.9 789.368 274.384 791.448 274.384V268.384ZM788.7 267.725C787.964 267.272 787.357 266.621 786.883 265.674L781.517 268.358C782.451 270.227 783.796 271.752 785.556 272.835L788.7 267.725ZM786.883 265.674C786.422 264.751 786.144 263.593 786.144 262.12H780.144C780.144 264.359 780.57 266.465 781.517 268.358L786.883 265.674ZM786.144 262.12C786.144 260.647 786.422 259.489 786.883 258.566L781.517 255.882C780.57 257.775 780.144 259.881 780.144 262.12H786.144ZM786.883 258.566C787.352 257.628 787.945 257.009 788.652 256.592L785.604 251.424C783.815 252.479 782.456 254.004 781.517 255.882L786.883 258.566ZM788.671 256.58C789.452 256.112 790.351 255.856 791.448 255.856V249.856C789.345 249.856 787.364 250.368 785.585 251.436L788.671 256.58ZM791.448 255.856C793.138 255.856 794.304 256.398 795.224 257.414L799.672 253.386C797.52 251.01 794.686 249.856 791.448 249.856V255.856ZM795.265 257.457C796.193 258.443 796.8 259.882 796.8 262.12H802.8C802.8 258.726 801.839 255.685 799.631 253.343L795.265 257.457ZM796.8 262.12C796.8 264.355 796.194 265.826 795.245 266.851L799.651 270.925C801.838 268.558 802.8 265.517 802.8 262.12H796.8ZM795.244 266.853C794.329 267.844 793.157 268.384 791.448 268.384V274.384C794.667 274.384 797.495 273.26 799.652 270.923L795.244 266.853ZM791.448 270.448C793.525 270.448 795.305 269.512 796.474 267.789L791.51 264.419C791.475 264.471 791.455 264.489 791.456 264.488C791.457 264.487 791.461 264.483 791.469 264.478C791.477 264.472 791.487 264.466 791.499 264.459C791.51 264.453 791.521 264.449 791.53 264.445C791.538 264.442 791.543 264.441 791.543 264.441C791.542 264.441 791.514 264.448 791.448 264.448V270.448ZM796.462 267.807C797.586 266.177 797.952 264.154 797.952 262.12H791.952C791.952 263.542 791.678 264.175 791.522 264.401L796.462 267.807ZM797.952 262.12C797.952 260.097 797.59 258.06 796.433 256.44L791.551 259.928C791.674 260.1 791.952 260.687 791.952 262.12H797.952ZM796.501 256.54C795.352 254.786 793.571 253.792 791.448 253.792V259.792C791.506 259.792 791.527 259.798 791.52 259.796C791.517 259.796 791.509 259.793 791.497 259.789C791.486 259.785 791.473 259.779 791.46 259.772C791.447 259.765 791.436 259.758 791.428 259.752C791.42 259.746 791.417 259.743 791.418 259.743C791.419 259.745 791.443 259.768 791.483 259.828L796.501 256.54ZM791.448 253.792C789.375 253.792 787.638 254.748 786.463 256.392L791.345 259.88C791.392 259.815 791.423 259.784 791.434 259.774C791.444 259.766 791.439 259.771 791.421 259.781C791.403 259.79 791.388 259.795 791.382 259.796C791.378 259.797 791.397 259.792 791.448 259.792V253.792ZM786.463 256.392C785.3 258.02 784.944 260.079 784.944 262.12H790.944C790.944 260.641 791.228 260.044 791.345 259.88L786.463 256.392ZM784.944 262.12C784.944 264.161 785.3 266.22 786.463 267.848L791.345 264.36C791.228 264.196 790.944 263.599 790.944 262.12H784.944ZM786.463 267.848C787.638 269.492 789.375 270.448 791.448 270.448V264.448C791.397 264.448 791.378 264.443 791.382 264.444C791.388 264.445 791.403 264.45 791.421 264.459C791.439 264.469 791.444 264.474 791.434 264.466C791.423 264.456 791.392 264.425 791.345 264.36L786.463 267.848Z" fill="white"/>
<path d="M849.062 244.448C849.866 244.664 850.478 245.036 850.898 245.564C851.318 246.08 851.528 246.728 851.528 247.508C851.528 248.612 851.12 249.47 850.304 250.082C849.488 250.694 848.306 251 846.758 251H840.782V238.4H846.416C847.832 238.4 848.936 238.682 849.728 239.246C850.52 239.81 850.916 240.608 850.916 241.64C850.916 242.3 850.754 242.87 850.43 243.35C850.118 243.83 849.662 244.196 849.062 244.448ZM843.086 243.782H846.218C846.974 243.782 847.55 243.632 847.946 243.332C848.342 243.032 848.54 242.588 848.54 242C848.54 241.412 848.342 240.968 847.946 240.668C847.55 240.356 846.974 240.2 846.218 240.2H843.086V243.782ZM846.686 249.2C848.342 249.2 849.17 248.576 849.17 247.328C849.17 246.104 848.342 245.492 846.686 245.492H843.086V249.2H846.686ZM860.026 251.18C858.742 251.18 857.584 250.904 856.552 250.352C855.52 249.788 854.71 249.014 854.122 248.03C853.534 247.034 853.24 245.924 853.24 244.7C853.24 243.476 853.534 242.372 854.122 241.388C854.71 240.392 855.52 239.618 856.552 239.066C857.584 238.502 858.742 238.22 860.026 238.22C861.31 238.22 862.468 238.502 863.5 239.066C864.532 239.618 865.342 240.386 865.93 241.37C866.518 242.354 866.812 243.464 866.812 244.7C866.812 245.936 866.518 247.046 865.93 248.03C865.342 249.014 864.532 249.788 863.5 250.352C862.468 250.904 861.31 251.18 860.026 251.18ZM860.026 249.128C860.866 249.128 861.622 248.942 862.294 248.57C862.966 248.186 863.494 247.658 863.878 246.986C864.262 246.302 864.454 245.54 864.454 244.7C864.454 243.86 864.262 243.104 863.878 242.432C863.494 241.748 862.966 241.22 862.294 240.848C861.622 240.464 860.866 240.272 860.026 240.272C859.186 240.272 858.43 240.464 857.758 240.848C857.086 241.22 856.558 241.748 856.174 242.432C855.79 243.104 855.598 243.86 855.598 244.7C855.598 245.54 855.79 246.302 856.174 246.986C856.558 247.658 857.086 248.186 857.758 248.57C858.43 248.942 859.186 249.128 860.026 249.128ZM869.327 238.4H871.667V251H869.327V238.4ZM868.751 237.176C868.439 237.176 868.181 237.074 867.977 236.87C867.773 236.666 867.671 236.408 867.671 236.096C867.671 235.772 867.773 235.508 867.977 235.304C868.181 235.1 868.439 234.998 868.751 234.998C869.063 234.998 869.321 235.1 869.525 235.304C869.729 235.508 869.831 235.772 869.831 236.096C869.831 236.408 869.729 236.666 869.525 236.87C869.321 237.074 869.063 237.176 868.751 237.176ZM872.243 237.176C871.931 237.176 871.673 237.074 871.469 236.87C871.265 236.666 871.163 236.408 871.163 236.096C871.163 235.772 871.265 235.508 871.469 235.304C871.673 235.1 871.931 234.998 872.243 234.998C872.555 234.998 872.813 235.1 873.017 235.304C873.221 235.508 873.323 235.772 873.323 236.096C873.323 236.408 873.221 236.666 873.017 236.87C872.813 237.074 872.555 237.176 872.243 237.176ZM886.343 238.4V251H884.003V245.6H877.487V251H875.147V238.4H877.487V243.602H884.003V238.4H886.343ZM898.229 248.084H891.929L890.687 251H888.275L893.945 238.4H896.249L901.937 251H899.489L898.229 248.084ZM897.455 246.248L895.079 240.74L892.721 246.248H897.455ZM915.443 251L915.425 242.648L911.285 249.56H910.241L906.101 242.756V251H903.887V238.4H905.813L910.799 246.734L915.731 238.4H917.639L917.675 251H915.443ZM934.528 248.084H928.228L926.986 251H924.574L930.244 238.4H932.548L938.236 251H935.788L934.528 248.084ZM933.754 246.248L931.378 240.74L929.02 246.248H933.754ZM948.679 240.38H944.503V251H942.181V240.38H938.023V238.4H948.679V240.38ZM956.354 251.18C955.07 251.18 953.912 250.904 952.88 250.352C951.848 249.788 951.038 249.014 950.45 248.03C949.862 247.034 949.568 245.924 949.568 244.7C949.568 243.476 949.862 242.372 950.45 241.388C951.038 240.392 951.848 239.618 952.88 239.066C953.912 238.502 955.07 238.22 956.354 238.22C957.638 238.22 958.796 238.502 959.828 239.066C960.86 239.618 961.67 240.386 962.258 241.37C962.846 242.354 963.14 243.464 963.14 244.7C963.14 245.936 962.846 247.046 962.258 248.03C961.67 249.014 960.86 249.788 959.828 250.352C958.796 250.904 957.638 251.18 956.354 251.18ZM956.354 249.128C957.194 249.128 957.95 248.942 958.622 248.57C959.294 248.186 959.822 247.658 960.206 246.986C960.59 246.302 960.782 245.54 960.782 244.7C960.782 243.86 960.59 243.104 960.206 242.432C959.822 241.748 959.294 241.22 958.622 240.848C957.95 240.464 957.194 240.272 956.354 240.272C955.514 240.272 954.758 240.464 954.086 240.848C953.414 241.22 952.886 241.748 952.502 242.432C952.118 243.104 951.926 243.86 951.926 244.7C951.926 245.54 952.118 246.302 952.502 246.986C952.886 247.658 953.414 248.186 954.086 248.57C954.758 248.942 955.514 249.128 956.354 249.128Z" fill="#0C323B"/>
<path d="M655.328 328.984V325.984H652.328V328.984H655.328ZM673.44 328.984H676.44V325.984H673.44V328.984ZM673.44 336.984V339.984H676.44V336.984H673.44ZM655.328 336.984H652.328V339.984H655.328V336.984ZM655.328 331.984H673.44V325.984H655.328V331.984ZM670.44 328.984V336.984H676.44V328.984H670.44ZM673.44 333.984H655.328V339.984H673.44V333.984ZM658.328 336.984V328.984H652.328V336.984H658.328ZM698.936 300.6H701.936V297.6H698.936V300.6ZM698.936 351V354H701.936V351H698.936ZM687.271 351H684.271V354H687.271V351ZM687.271 309.96H690.271V306.96H687.271V309.96ZM677.191 309.96H674.191V312.96H677.191V309.96ZM677.191 300.6V297.6H674.191V300.6H677.191ZM695.936 300.6V351H701.936V300.6H695.936ZM698.936 348H687.271V354H698.936V348ZM690.271 351V309.96H684.271V351H690.271ZM687.271 306.96H677.191V312.96H687.271V306.96ZM680.191 309.96V300.6H674.191V309.96H680.191ZM677.191 303.6H698.936V297.6H677.191V303.6ZM740.739 321.336L742.061 318.643L740.739 321.336ZM747.003 326.88L744.476 328.497L744.483 328.509L744.491 328.52L747.003 326.88ZM746.787 343.944L744.283 342.291V342.291L746.787 343.944ZM739.875 349.848L741.143 352.567L741.153 352.562L741.163 352.557L739.875 349.848ZM713.667 345.384L711.461 347.418L713.667 345.384ZM710.931 312.192L708.279 310.788L710.931 312.192ZM719.931 302.904L718.499 300.268L718.492 300.272L718.485 300.275L719.931 302.904ZM741.099 300.672L740.358 303.579L740.391 303.587L740.424 303.595L741.099 300.672ZM747.435 303.192L750.114 304.543L751.334 302.123L749.05 300.664L747.435 303.192ZM743.115 311.76L741.44 314.249L744.262 316.148L745.794 313.111L743.115 311.76ZM723.531 312.984L725.652 315.105L723.531 312.984ZM719.499 323.856L716.501 323.735L716.191 331.406L721.62 325.977L719.499 323.856ZM735.627 341.136L733.686 338.848L733.668 338.863L733.651 338.878L735.627 341.136ZM735.627 330.192L733.612 332.415L733.649 332.448L733.686 332.48L735.627 330.192ZM723.171 330.264L725.118 332.547L725.137 332.53L725.156 332.514L723.171 330.264ZM723.099 341.064L725.079 338.811L723.099 341.064ZM731.955 322.392C734.756 322.392 737.226 322.953 739.417 324.029L742.061 318.643C738.972 317.127 735.586 316.392 731.955 316.392V322.392ZM739.417 324.029C741.581 325.091 743.246 326.575 744.476 328.497L749.53 325.263C747.688 322.385 745.177 320.173 742.061 318.643L739.417 324.029ZM744.491 328.52C745.674 330.331 746.307 332.484 746.307 335.088H752.307C752.307 331.452 751.404 328.133 749.515 325.24L744.491 328.52ZM746.307 335.088C746.307 337.923 745.607 340.287 744.283 342.291L749.29 345.597C751.327 342.513 752.307 338.973 752.307 335.088H746.307ZM744.283 342.291C742.924 344.349 741.054 345.966 738.587 347.139L741.163 352.557C744.552 350.946 747.29 348.627 749.29 345.597L744.283 342.291ZM738.606 347.129C736.168 348.267 733.392 348.864 730.227 348.864V354.864C734.165 354.864 737.822 354.117 741.143 352.567L738.606 347.129ZM730.227 348.864C723.826 348.864 719.175 346.932 715.872 343.35L711.461 347.418C716.126 352.476 722.515 354.864 730.227 354.864V348.864ZM715.872 343.35C712.561 339.759 710.691 334.42 710.691 326.88H704.691C704.691 335.372 706.805 342.369 711.461 347.418L715.872 343.35ZM710.691 326.88C710.691 321.543 711.699 317.152 713.582 313.596L708.279 310.788C705.842 315.392 704.691 320.793 704.691 326.88H710.691ZM713.582 313.596C715.484 310.004 718.077 307.347 721.377 305.533L718.485 300.275C714.104 302.685 710.698 306.22 708.279 310.788L713.582 313.596ZM721.363 305.54C724.749 303.701 728.731 302.736 733.395 302.736V296.736C727.882 296.736 722.888 297.883 718.499 300.268L721.363 305.54ZM733.395 302.736C735.849 302.736 738.167 303.021 740.358 303.579L741.84 297.765C739.135 297.075 736.317 296.736 733.395 296.736V302.736ZM740.424 303.595C742.666 304.113 744.442 304.84 745.82 305.72L749.05 300.664C746.972 299.336 744.523 298.383 741.773 297.749L740.424 303.595ZM744.756 301.841L740.436 310.409L745.794 313.111L750.114 304.543L744.756 301.841ZM744.79 309.271C741.684 307.181 737.916 306.24 733.683 306.24V312.24C737.033 312.24 739.554 312.979 741.44 314.249L744.79 309.271ZM733.683 306.24C728.794 306.24 724.583 307.689 721.409 310.863L725.652 315.105C727.471 313.287 730.028 312.24 733.683 312.24V306.24ZM721.409 310.863C718.218 314.054 716.713 318.496 716.501 323.735L722.496 323.977C722.669 319.712 723.851 316.906 725.652 315.105L721.409 310.863ZM721.62 325.977C723.894 323.704 727.2 322.392 731.955 322.392V316.392C726.054 316.392 721.056 318.056 717.377 321.735L721.62 325.977ZM729.579 346.152C732.633 346.152 735.404 345.317 737.602 343.394L733.651 338.878C732.777 339.643 731.517 340.152 729.579 340.152V346.152ZM737.568 343.424C739.902 341.443 741.003 338.741 741.003 335.664H735.003C735.003 337.195 734.52 338.141 733.686 338.848L737.568 343.424ZM741.003 335.664C741.003 332.587 739.902 329.885 737.568 327.904L733.686 332.48C734.52 333.187 735.003 334.133 735.003 335.664H741.003ZM737.641 327.969C735.425 325.96 732.577 325.104 729.435 325.104V331.104C731.476 331.104 732.757 331.64 733.612 332.415L737.641 327.969ZM729.435 325.104C726.291 325.104 723.457 326.011 721.186 328.014L725.156 332.514C726.149 331.637 727.491 331.104 729.435 331.104V325.104ZM721.224 327.981C718.902 329.962 717.723 332.607 717.723 335.664H723.723C723.723 334.305 724.176 333.35 725.118 332.547L721.224 327.981ZM717.723 335.664C717.723 338.689 718.852 341.326 721.118 343.317L725.079 338.811C724.177 338.018 723.723 337.055 723.723 335.664H717.723ZM721.118 343.317C723.396 345.319 726.336 346.152 729.579 346.152V340.152C727.35 340.152 725.969 339.593 725.079 338.811L721.118 343.317Z" fill="white"/>
<path d="M762.6 333.048L760.376 335.062L760.396 335.084L760.417 335.105L762.6 333.048ZM762.6 319.56L760.397 317.523L760.396 317.525L762.6 319.56ZM774.648 319.56L772.424 321.574L772.434 321.584L772.444 321.595L774.648 319.56ZM774.648 333.048L776.852 335.083L776.862 335.072L776.872 335.062L774.648 333.048ZM788.664 317.4V314.4H787.08L786.187 315.708L788.664 317.4ZM794.376 317.4L796.853 319.092L800.057 314.4H794.376V317.4ZM771.432 351V354H773.016L773.909 352.692L771.432 351ZM765.72 351L763.243 349.308L760.039 354H765.72V351ZM771.192 330.264L768.751 328.52L768.73 328.55L768.71 328.579L771.192 330.264ZM771.192 322.296L768.71 323.981L768.73 324.01L768.751 324.04L771.192 322.296ZM766.104 322.344L768.545 324.088L768.56 324.068L768.574 324.047L766.104 322.344ZM766.104 330.264L763.634 331.967L763.648 331.988L763.663 332.008L766.104 330.264ZM787.128 350.28L785.556 352.835L785.594 352.858L785.633 352.881L787.128 350.28ZM784.2 347.016L786.883 345.674L784.2 347.016ZM784.2 337.224L786.883 338.566V338.566L784.2 337.224ZM787.128 334.008L788.652 336.592L788.662 336.586L788.671 336.58L787.128 334.008ZM797.448 335.4L795.224 337.414L795.244 337.436L795.265 337.457L797.448 335.4ZM797.448 348.888L795.245 346.851L795.244 346.853L797.448 348.888ZM793.992 346.104L791.522 344.401L791.516 344.41L791.51 344.419L793.992 346.104ZM793.992 338.184L791.483 339.828L791.516 339.879L791.551 339.928L793.992 338.184ZM768.648 332.544C766.939 332.544 765.737 332.003 764.783 330.991L760.417 335.105C762.599 337.421 765.429 338.544 768.648 338.544V332.544ZM764.824 331.034C763.896 330.01 763.296 328.531 763.296 326.28H757.296C757.296 329.661 758.232 332.694 760.376 335.062L764.824 331.034ZM763.296 326.28C763.296 324.026 763.897 322.578 764.804 321.595L760.396 317.525C758.231 319.87 757.296 322.902 757.296 326.28H763.296ZM764.803 321.597C765.762 320.559 766.958 320.016 768.648 320.016V314.016C765.41 314.016 762.574 315.169 760.397 317.523L764.803 321.597ZM768.648 320.016C770.338 320.016 771.504 320.558 772.424 321.574L776.872 317.546C774.72 315.17 771.886 314.016 768.648 314.016V320.016ZM772.444 321.595C773.351 322.578 773.952 324.026 773.952 326.28H779.952C779.952 322.902 779.017 319.87 776.852 317.525L772.444 321.595ZM773.952 326.28C773.952 328.531 773.352 330.01 772.424 331.034L776.872 335.062C779.016 332.694 779.952 329.661 779.952 326.28H773.952ZM772.444 331.013C771.529 332.004 770.357 332.544 768.648 332.544V338.544C771.867 338.544 774.695 337.42 776.852 335.083L772.444 331.013ZM788.664 320.4H794.376V314.4H788.664V320.4ZM791.899 315.708L768.955 349.308L773.909 352.692L796.853 319.092L791.899 315.708ZM771.432 348H765.72V354H771.432V348ZM768.197 352.692L791.141 319.092L786.187 315.708L763.243 349.308L768.197 352.692ZM768.648 334.608C770.725 334.608 772.505 333.672 773.674 331.949L768.71 328.579C768.675 328.631 768.655 328.649 768.656 328.648C768.657 328.647 768.661 328.643 768.669 328.638C768.677 328.632 768.687 328.626 768.699 328.619C768.71 328.613 768.721 328.609 768.73 328.605C768.738 328.602 768.743 328.601 768.743 328.601C768.742 328.601 768.714 328.608 768.648 328.608V334.608ZM773.633 332.008C774.796 330.38 775.152 328.321 775.152 326.28H769.152C769.152 327.759 768.868 328.356 768.751 328.52L773.633 332.008ZM775.152 326.28C775.152 324.239 774.796 322.18 773.633 320.552L768.751 324.04C768.868 324.204 769.152 324.801 769.152 326.28H775.152ZM773.674 320.611C772.505 318.888 770.725 317.952 768.648 317.952V323.952C768.714 323.952 768.742 323.959 768.743 323.959C768.743 323.959 768.738 323.958 768.73 323.955C768.721 323.951 768.71 323.947 768.699 323.941C768.687 323.934 768.677 323.928 768.669 323.922C768.661 323.917 768.657 323.913 768.656 323.912C768.655 323.911 768.675 323.929 768.71 323.981L773.674 320.611ZM768.648 317.952C766.529 317.952 764.79 318.966 763.634 320.641L768.574 324.047C768.624 323.974 768.659 323.938 768.672 323.926C768.685 323.915 768.68 323.921 768.66 323.932C768.639 323.943 768.618 323.951 768.605 323.954C768.594 323.957 768.605 323.952 768.648 323.952V317.952ZM763.663 320.6C762.506 322.22 762.144 324.257 762.144 326.28H768.144C768.144 324.847 768.422 324.26 768.545 324.088L763.663 320.6ZM762.144 326.28C762.144 328.314 762.51 330.337 763.634 331.967L768.574 328.561C768.418 328.335 768.144 327.702 768.144 326.28H762.144ZM763.663 332.008C764.838 333.652 766.575 334.608 768.648 334.608V328.608C768.597 328.608 768.578 328.603 768.582 328.604C768.588 328.605 768.603 328.61 768.621 328.619C768.639 328.629 768.644 328.634 768.634 328.626C768.623 328.616 768.592 328.585 768.545 328.52L763.663 332.008ZM791.448 348.384C790.328 348.384 789.411 348.132 788.623 347.679L785.633 352.881C787.405 353.9 789.368 354.384 791.448 354.384V348.384ZM788.7 347.725C787.964 347.272 787.357 346.621 786.883 345.674L781.517 348.358C782.451 350.227 783.796 351.752 785.556 352.835L788.7 347.725ZM786.883 345.674C786.422 344.751 786.144 343.593 786.144 342.12H780.144C780.144 344.359 780.57 346.465 781.517 348.358L786.883 345.674ZM786.144 342.12C786.144 340.647 786.422 339.489 786.883 338.566L781.517 335.882C780.57 337.775 780.144 339.881 780.144 342.12H786.144ZM786.883 338.566C787.352 337.628 787.945 337.009 788.652 336.592L785.604 331.424C783.815 332.479 782.456 334.004 781.517 335.882L786.883 338.566ZM788.671 336.58C789.452 336.112 790.351 335.856 791.448 335.856V329.856C789.345 329.856 787.364 330.368 785.585 331.436L788.671 336.58ZM791.448 335.856C793.138 335.856 794.304 336.398 795.224 337.414L799.672 333.386C797.52 331.01 794.686 329.856 791.448 329.856V335.856ZM795.265 337.457C796.193 338.443 796.8 339.882 796.8 342.12H802.8C802.8 338.726 801.839 335.685 799.631 333.343L795.265 337.457ZM796.8 342.12C796.8 344.355 796.194 345.826 795.245 346.851L799.651 350.925C801.838 348.558 802.8 345.517 802.8 342.12H796.8ZM795.244 346.853C794.329 347.844 793.157 348.384 791.448 348.384V354.384C794.667 354.384 797.495 353.26 799.652 350.923L795.244 346.853ZM791.448 350.448C793.525 350.448 795.305 349.512 796.474 347.789L791.51 344.419C791.475 344.471 791.455 344.489 791.456 344.488C791.457 344.487 791.461 344.483 791.469 344.478C791.477 344.472 791.487 344.466 791.499 344.459C791.51 344.453 791.521 344.449 791.53 344.445C791.538 344.442 791.543 344.441 791.543 344.441C791.542 344.441 791.514 344.448 791.448 344.448V350.448ZM796.462 347.807C797.586 346.177 797.952 344.154 797.952 342.12H791.952C791.952 343.542 791.678 344.175 791.522 344.401L796.462 347.807ZM797.952 342.12C797.952 340.097 797.59 338.06 796.433 336.44L791.551 339.928C791.674 340.1 791.952 340.687 791.952 342.12H797.952ZM796.501 336.54C795.352 334.786 793.571 333.792 791.448 333.792V339.792C791.506 339.792 791.527 339.798 791.52 339.796C791.517 339.796 791.509 339.793 791.497 339.789C791.486 339.785 791.473 339.779 791.46 339.772C791.447 339.765 791.436 339.758 791.428 339.752C791.42 339.746 791.417 339.743 791.418 339.743C791.419 339.745 791.443 339.768 791.483 339.828L796.501 336.54ZM791.448 333.792C789.375 333.792 787.638 334.748 786.463 336.392L791.345 339.88C791.392 339.815 791.423 339.784 791.434 339.774C791.444 339.766 791.439 339.771 791.421 339.781C791.403 339.79 791.388 339.795 791.382 339.796C791.378 339.797 791.397 339.792 791.448 339.792V333.792ZM786.463 336.392C785.3 338.02 784.944 340.079 784.944 342.12H790.944C790.944 340.641 791.228 340.044 791.345 339.88L786.463 336.392ZM784.944 342.12C784.944 344.161 785.3 346.22 786.463 347.848L791.345 344.36C791.228 344.196 790.944 343.599 790.944 342.12H784.944ZM786.463 347.848C787.638 349.492 789.375 350.448 791.448 350.448V344.448C791.397 344.448 791.378 344.443 791.382 344.444C791.388 344.445 791.403 344.45 791.421 344.459C791.439 344.469 791.444 344.474 791.434 344.466C791.423 344.456 791.392 344.425 791.345 344.36L786.463 347.848Z" fill="white"/>
<path d="M851.924 318.4V331H849.62V320.38H843.086V331H840.782V318.4H851.924ZM864.927 329.038V331H855.477V318.4H864.675V320.362H857.817V323.638H863.901V325.564H857.817V329.038H864.927ZM878.731 318.4V331H876.391V325.6H869.875V331H867.535V318.4H869.875V323.602H876.391V318.4H878.731ZM888.062 331.18C886.79 331.18 885.638 330.904 884.606 330.352C883.586 329.788 882.782 329.014 882.194 328.03C881.618 327.046 881.33 325.936 881.33 324.7C881.33 323.464 881.624 322.354 882.212 321.37C882.8 320.386 883.604 319.618 884.624 319.066C885.656 318.502 886.808 318.22 888.08 318.22C889.112 318.22 890.054 318.4 890.906 318.76C891.758 319.12 892.478 319.642 893.066 320.326L891.554 321.748C890.642 320.764 889.52 320.272 888.188 320.272C887.324 320.272 886.55 320.464 885.866 320.848C885.182 321.22 884.648 321.742 884.264 322.414C883.88 323.086 883.688 323.848 883.688 324.7C883.688 325.552 883.88 326.314 884.264 326.986C884.648 327.658 885.182 328.186 885.866 328.57C886.55 328.942 887.324 329.128 888.188 329.128C889.52 329.128 890.642 328.63 891.554 327.634L893.066 329.074C892.478 329.758 891.752 330.28 890.888 330.64C890.036 331 889.094 331.18 888.062 331.18ZM895.257 318.4H897.561V331H895.257V318.4ZM906.942 331.18C905.658 331.18 904.5 330.904 903.468 330.352C902.436 329.788 901.626 329.014 901.038 328.03C900.45 327.034 900.156 325.924 900.156 324.7C900.156 323.476 900.45 322.372 901.038 321.388C901.626 320.392 902.436 319.618 903.468 319.066C904.5 318.502 905.658 318.22 906.942 318.22C908.226 318.22 909.384 318.502 910.416 319.066C911.448 319.618 912.258 320.386 912.846 321.37C913.434 322.354 913.728 323.464 913.728 324.7C913.728 325.936 913.434 327.046 912.846 328.03C912.258 329.014 911.448 329.788 910.416 330.352C909.384 330.904 908.226 331.18 906.942 331.18ZM906.942 329.128C907.782 329.128 908.538 328.942 909.21 328.57C909.882 328.186 910.41 327.658 910.794 326.986C911.178 326.302 911.37 325.54 911.37 324.7C911.37 323.86 911.178 323.104 910.794 322.432C910.41 321.748 909.882 321.22 909.21 320.848C908.538 320.464 907.782 320.272 906.942 320.272C906.102 320.272 905.346 320.464 904.674 320.848C904.002 321.22 903.474 321.748 903.09 322.432C902.706 323.104 902.514 323.86 902.514 324.7C902.514 325.54 902.706 326.302 903.09 326.986C903.474 327.658 904.002 328.186 904.674 328.57C905.346 328.942 906.102 329.128 906.942 329.128ZM927.511 318.4V331H925.171V325.6H918.655V331H916.315V318.4H918.655V323.602H925.171V318.4H927.511ZM940.495 329.038V331H931.045V318.4H940.243V320.362H933.385V323.638H939.469V325.564H933.385V329.038H940.495ZM948.288 318.4C949.38 318.4 950.328 318.58 951.132 318.94C951.948 319.3 952.572 319.816 953.004 320.488C953.436 321.16 953.652 321.958 953.652 322.882C953.652 323.794 953.436 324.592 953.004 325.276C952.572 325.948 951.948 326.464 951.132 326.824C950.328 327.184 949.38 327.364 948.288 327.364H945.444V331H943.104V318.4H948.288ZM948.18 325.384C949.2 325.384 949.974 325.168 950.502 324.736C951.03 324.304 951.294 323.686 951.294 322.882C951.294 322.078 951.03 321.46 950.502 321.028C949.974 320.596 949.2 320.38 948.18 320.38H945.444V325.384H948.18ZM963.585 328.084H957.285L956.043 331H953.631L959.301 318.4H961.605L967.293 331H964.845L963.585 328.084ZM962.811 326.248L960.435 320.74L958.077 326.248H962.811ZM980.799 331L980.781 322.648L976.641 329.56H975.597L971.457 322.756V331H969.243V318.4H971.169L976.155 326.734L981.087 318.4H982.995L983.031 331H980.799Z" fill="#0C323B"/>
<circle cx="567" cy="350" r="14" fill="url(#paint0_linear)"/>
<circle cx="1258" cy="182" r="115" fill="url(#paint1_linear)"/>
<ellipse cx="1183.51" cy="133.973" rx="7.5" ry="15.5" transform="rotate(36.4041 1183.51 133.973)" fill="white" fill-opacity="0.76"/>
<ellipse cx="1199.96" cy="115.333" rx="2.80694" ry="4.34524" transform="rotate(40.6846 1199.96 115.333)" fill="white" fill-opacity="0.76"/>
<circle cx="1105.05" cy="314.047" r="55" transform="rotate(57.1236 1105.05 314.047)" fill="url(#paint2_linear)"/>
<ellipse cx="1068.1" cy="294.088" rx="3.52682" ry="7.28877" transform="rotate(28.416 1068.1 294.088)" fill="white" fill-opacity="0.76"/>
<circle cx="1238" cy="362" r="33" transform="rotate(45.2633 1238 362)" fill="url(#paint3_linear)"/>
<ellipse cx="1215.16" cy="351.665" rx="2.0627" ry="4.26291" transform="rotate(25.9157 1215.16 351.665)" fill="white" fill-opacity="0.76"/>
<ellipse cx="1219.49" cy="344.857" rx="0.984561" ry="1.38018" transform="rotate(25.9157 1219.49 344.857)" fill="white" fill-opacity="0.76"/>
<defs>
<linearGradient id="paint0_linear" x1="536.449" y1="361.76" x2="577.764" y2="343.093" gradientUnits="userSpaceOnUse">
<stop stop-color="white"/>
<stop offset="1" stop-color="white" stop-opacity="0"/>
</linearGradient>
<linearGradient id="paint1_linear" x1="1007.04" y1="278.6" x2="1346.42" y2="125.267" gradientUnits="userSpaceOnUse">
<stop stop-color="white"/>
<stop offset="1" stop-color="white" stop-opacity="0"/>
</linearGradient>
<linearGradient id="paint2_linear" x1="985.025" y1="360.247" x2="1147.34" y2="286.914" gradientUnits="userSpaceOnUse">
<stop stop-color="white"/>
<stop offset="1" stop-color="white" stop-opacity="0"/>
</linearGradient>
<linearGradient id="paint3_linear" x1="1165.99" y1="389.72" x2="1263.37" y2="345.72" gradientUnits="userSpaceOnUse">
<stop stop-color="white"/>
<stop offset="1" stop-color="white" stop-opacity="0"/>
</linearGradient>
</defs>
</svg>
